<?xml version="1.0" encoding="utf-8"?>
<!-- Generator: Adobe Illustrator 23.0.1, SVG Export Plug-In . SVG Version: 6.00 Build 0)  -->
<svg version="1.1" id="Layer_1" xmlns="http://www.w3.org/2000/svg" xmlns:xlink="http://www.w3.org/1999/xlink" x="0px" y="0px"
	 viewBox="0 0 336.1 101.5" style="enable-background:new 0 0 336.1 101.5;" xml:space="preserve">
<style type="text/css">
	.st0{fill:#FFFFFF;}
</style>
<g>
	<path class="st0" d="M58.1,41.3c-3.6-2.2-7.3-4.3-11-6.4c-2.6-1.5-4.9-0.2-5,2.8c0,2.1,0,4.2,0,6.4c0,0,0,0,0,0c0,2.1,0,4.1,0,6.2
		c0,3.1,2.3,4.5,5,3c3.7-2.1,7.4-4.2,11-6.4C60.5,45.4,60.5,42.7,58.1,41.3z"/>
	<path class="st0" d="M72,5.3H27.5C15,5.3,4.8,15.5,4.8,28v44.5C4.8,85,15,95.2,27.5,95.2H72c12.5,0,22.7-10.2,22.7-22.7V28
		C94.7,15.5,84.5,5.3,72,5.3z M45.5,65.1c-0.6-0.1-1.1-0.2-2.1-0.3c0,2.7,0.1,5.1,0,7.6c-0.1,3.2-2.4,6.1-5.4,7.1
		c-3.1,1.1-6.6,0.1-8.6-2.3c-1.4-1.6-2.1-3.5-2.1-5.7c0-9.7-0.1-19.3,0-29c0.1-10.9,9.1-20.8,19.9-21.8c11.6-1.1,22.1,6.4,24.5,17.5
		C75.1,54.1,61.6,68,45.5,65.1z"/>
</g>
<g>
	<g>
		<path class="st0" d="M127,56.6V46.1c2.4,0,3.6-0.9,3.6-2.8c0-1.7-0.9-2.5-2.8-2.5c-1.9,0-2.8,1.2-2.8,3.5v26.1h-11.9V45.5
			c0-2.6,0.3-4.7,0.8-6.3s1.4-3.2,2.7-4.6c1.4-1.6,3.2-2.8,5.3-3.8s4.3-1.4,6.5-1.4c4.1,0,7.5,1.4,10.2,4.1s4.1,6.1,4.1,10.2
			c0,3.9-1.2,7.1-3.7,9.6c-2.3,2.2-5.7,3.4-10.3,3.4L127,56.6z"/>
		<path class="st0" d="M158.9,41.2v29.2h-11V41.2H158.9z M153.5,28.1c1.5,0,2.8,0.5,3.9,1.6s1.6,2.3,1.6,3.7c0,1.5-0.5,2.8-1.5,3.8
			s-2.3,1.5-3.9,1.5s-2.9-0.5-3.9-1.5s-1.5-2.2-1.5-3.8c0-1.4,0.5-2.7,1.6-3.7S152,28.1,153.5,28.1z"/>
		<path class="st0" d="M181.2,41.2h11v6.4c0,1.8-0.3,3.3-0.8,4.4s-1.5,2.1-2.8,3c1.3,0.9,2.3,1.9,2.8,3s0.8,2.5,0.8,4.2v8.2h-11
			v-8.8c0-2-0.7-3-2.1-3c-1.4,0-2.1,0.9-2.1,2.6v9.2h-11v-7.8c0-1.8,0.3-3.3,1-4.4s1.8-2.2,3.4-3.2c-1.6-1.1-2.8-2.2-3.4-3.3
			s-1-2.7-1-4.5v-6h11v7.4c0,0.8,0.2,1.4,0.6,1.9s0.9,0.7,1.5,0.7c1.4,0,2.1-0.9,2.1-2.6V41.2z"/>
		<path class="st0" d="M215.4,59.4v11.3c-0.9,0.2-1.7,0.2-2.5,0.2c-4.4,0-8.1-1.4-11-4.3c-2.9-2.9-4.4-6.5-4.4-10.9
			c0-4.2,1.5-7.8,4.4-10.8s6.6-4.4,10.8-4.4c4.7,0,8.5,1.4,11.2,4.1s4.1,6.5,4.1,11.3v14.3h-11V56.8c0-1.5-0.4-2.8-1.1-3.7
			s-1.8-1.4-3-1.4c-1.2,0-2.1,0.4-3,1.3s-1.3,1.8-1.3,3c0,1.2,0.4,2.2,1.1,3s1.7,1.2,2.9,1.2C213.7,60.2,214.6,59.9,215.4,59.4z"/>
		<path class="st0" d="M246.5,30.4v40h-11v-40H246.5z"/>
		<path class="st0" d="M265,41.2v29.2h-11V41.2H265z M259.5,28.1c1.5,0,2.8,0.5,3.9,1.6s1.6,2.3,1.6,3.7c0,1.5-0.5,2.8-1.5,3.8
			s-2.3,1.5-3.9,1.5s-2.9-0.5-3.9-1.5s-1.5-2.2-1.5-3.8c0-1.4,0.5-2.7,1.6-3.7S258,28.1,259.5,28.1z"/>
		<path class="st0" d="M294.4,41.2l-13.7,30.4l-13.5-30.4h10.5l3.1,7.9l3.4-7.9H294.4z"/>
		<path class="st0" d="M325.4,57.6h-16.6c-0.3-0.8-0.4-1.6-0.4-2.3c0-1,0.2-1.9,0.5-2.9h5.6c-0.4-2.2-1.6-3.3-3.7-3.3
			c-1.4,0-2.5,0.6-3.3,1.7s-1.3,2.7-1.3,4.5c0,1.9,0.4,3.4,1.2,4.6s1.9,1.8,3.3,1.8c1.1,0,2.1-0.5,3.2-1.6l6.2,7.5
			c-2.9,2.3-6.1,3.4-9.7,3.4c-4.3,0-8-1.5-10.9-4.4c-2.9-2.9-4.4-6.5-4.4-10.8c0-4.3,1.5-7.9,4.5-10.8s6.6-4.4,11-4.4
			c4.2,0,7.8,1.4,10.7,4.3s4.3,6.4,4.3,10.6C325.5,55.9,325.5,56.6,325.4,57.6z"/>
	</g>
</g>
</svg>
