<svg width="21" height="21" viewBox="0 0 21 21" fill="none" xmlns="http://www.w3.org/2000/svg">
<path d="M15.8669 9.625C16.3761 14.3286 18.375 15.75 18.375 15.75H2.625C2.625 15.75 5.25 13.8834 5.25 7.35C5.25 5.86478 5.80312 4.44041 6.78769 3.39021C7.77226 2.34 9.10761 1.75 10.5 1.75C10.7951 1.75 11.0877 1.77651 11.375 1.8283" stroke="black" stroke-width="1.5" stroke-linecap="round" stroke-linejoin="round"/>
<path d="M16.625 7C18.0748 7 19.25 5.82474 19.25 4.375C19.25 2.92526 18.0748 1.75 16.625 1.75C15.1752 1.75 14 2.92526 14 4.375C14 5.82474 15.1752 7 16.625 7Z" stroke="black" stroke-width="1.5" stroke-linecap="round" stroke-linejoin="round"/>
<path d="M12.0138 18.375C11.86 18.6402 11.6392 18.8604 11.3735 19.0133C11.1079 19.1663 10.8067 19.2469 10.5001 19.2469C10.1935 19.2469 9.8923 19.1663 9.62665 19.0133C9.361 18.8604 9.14015 18.6402 8.98633 18.375" stroke="black" stroke-width="1.5" stroke-linecap="round" stroke-linejoin="round"/>
</svg>
